<svg xmlns="http://www.w3.org/2000/svg" width="128" height="128" viewBox="0 0 128 128"><path d="M95 109.6L79.3 94V37L60 83H50L30.5 37v57H15V5h17.6L55 58 77.3 5H95z" fill="#e6e6e6"/><path d="M95 109.6L79.3 94V37L60 83H50L30.5 37v57H15V5h17.6L55 58 77.3 5H95z" fill="none" stroke="#ccc" stroke-width=".1"/><path fill="gray" d="M100 115L84.6 99.4v-57L65 88.4H55l-19.2-46v57H20V10.2h17.7L60 63.5l22.5-53.3H100V115z"/><path d="M105.6 120.6L90 105V48L70.6 94h-10L41 48v57H25.6V15.6h17.6L65.6 69 88 15.6h17.6z" fill="#333"/><path d="M110.7 125.7L95 110V52.7l-19.3 46h-10l-19.3-46v57H30.7v-89h17.6L70.8 74 93 20.5h17.7z" fill="#1a1a1a"/></svg>